# xmcd
#
# Track frame offsets:
#  150
#  14200
#  34012
#  47745
#  66450
#  77677
#  93342
#  105920
#  120490
#  135620
#  149280
#  162060
#
# Disc length: 2397 seconds
#
# Revision: 0
# Processed by: cddbd v1.5.1PL2 Copyright (c) Steve Scherf et al.
# Submitted via: Collectorz.com_Music_Collector 6.9
#
DISCID=9b095b0c
DTITLE=Various Artist - Ultimate Country Hits Vol. III - Disc 2
DYEAR=1900
DGENRE=General Country
TTITLE0=Eddie Rabbitt - I Love A Rainy Night
TTITLE1=Kenny Rogers - Through The Years
TTITLE2=John Anderson - Swingin'
TTITLE3=Tanya Tucker - Two Sparrows In A Hurricane
TTITLE4=Shenandoah - Darned If I Don't (Danged If I Do)
TTITLE5=Billy Dean - Only Here For A Little While
TTITLE6=Sawyer Brown - Step That Step
TTITLE7=Carlson, Paulette - I'll Start With You
TTITLE8=The Nitty Gritty Dirt Band - Fishin' In The Dark
TTITLE9=West, Dottie - A Lesson In Leavin'
TTITLE10=Murphey, Michael Martin - What's Forever For
TTITLE11=John Berry - Your Love Amazes Me
EXTD=
EXTT0=
EXTT1=
EXTT2=
EXTT3=
EXTT4=
EXTT5=
EXTT6=
EXTT7=
EXTT8=
EXTT9=
EXTT10=
EXTT11=
PLAYORDER=
